M48
;DRILL file {KiCad 4.0.7} date 07/03/21 20:27:12
;FORMAT={3:3/ absolute / metric / suppress leading zeros}
FMAT,2
METRIC,TZ
T1C0.400
T2C0.635
T3C0.800
T4C0.950
%
G90
G05
M71
T1
X74652Y-72378
X74803Y-107950
X74803Y-120650
X74851Y-82574
X74930Y-128397
X75159Y-101581
X75284Y-73312
X77219Y-112372
X77250Y-94135
X77426Y-124344
X77686Y-73719
X78155Y-107829
X78176Y-111048
X78619Y-66519
X78740Y-60960
X78771Y-57682
X78986Y-96554
X79182Y-113858
X79248Y-72390
X79756Y-68580
X80137Y-130281
X80264Y-124413
X80447Y-122250
X80625Y-57670
X80645Y-60960
X80899Y-137160
X81026Y-74390
X81300Y-71653
X81381Y-113840
X81383Y-112374
X81407Y-117475
X81407Y-127529
X81446Y-66579
X81534Y-76581
X84201Y-91440
X84216Y-78732
X84243Y-68170
X84322Y-69850
X84455Y-93980
X84582Y-81788
X84709Y-60960
X84768Y-99605
X84924Y-96111
X84991Y-106821
X85852Y-106045
X86114Y-73660
X86265Y-107949
X86450Y-122237
X87017Y-78682
X87122Y-68580
X87410Y-99632
X88265Y-73279
X89572Y-114188
X89789Y-62484
X89789Y-84709
X89789Y-124365
X89803Y-88870
X89841Y-135240
X89916Y-121539
X90043Y-104140
X90297Y-116840
X90313Y-68580
X91059Y-107188
X91186Y-93498
X91194Y-90375
X91440Y-59182
X91440Y-68580
X91440Y-78867
X91440Y-125349
X91440Y-134112
X91452Y-128727
X91542Y-108789
X92387Y-110520
X92456Y-106426
X92551Y-71653
X92710Y-86409
X92729Y-96093
X92804Y-137418
X92817Y-135267
X92964Y-62484
X92975Y-91059
X93345Y-116840
X93385Y-115270
X93648Y-112626
X93696Y-132120
X94173Y-126180
X94223Y-62247
X94289Y-59705
X94297Y-67318
X94312Y-64731
X94376Y-118104
X94425Y-110414
X94555Y-113376
X94615Y-77470
X94615Y-86409
X94682Y-107158
X94742Y-73279
X94996Y-100330
X95012Y-97784
X98425Y-123190
X98427Y-138423
X98434Y-77505
X98787Y-128218
X99045Y-104706
X99045Y-115571
X99060Y-120650
X99085Y-69858
X99695Y-106680
X99812Y-129255
X99982Y-72393
X100180Y-103945
X100723Y-74648
X100808Y-75680
X101690Y-83106
X101834Y-80081
X101850Y-85573
X101850Y-88212
X101850Y-90621
X102171Y-92878
X102928Y-92224
X106394Y-70035
X106727Y-72345
X107479Y-68490
X108261Y-71155
X109563Y-99300
X109634Y-118785
X110236Y-77470
X111609Y-121159
X113030Y-120259
X113424Y-66689
X113665Y-69215
X114324Y-65937
X114579Y-122080
X115570Y-123190
X115588Y-67526
X116840Y-65315
X116840Y-123735
X118110Y-124280
X118120Y-65950
X119170Y-60616
X119179Y-124809
X119253Y-55880
X119326Y-63838
X120650Y-64680
X120650Y-126709
X121356Y-62613
X121920Y-127609
X123193Y-128509
X124460Y-128059
X125730Y-127159
X125730Y-58425
X126365Y-59590
X127000Y-61505
X127000Y-126259
X128270Y-125809
X128335Y-59820
X129540Y-125359
X130810Y-63410
X130810Y-119809
X132080Y-72390
X132080Y-74295
X132080Y-84182
X132279Y-122954
X133273Y-121198
X133372Y-84085
X134491Y-120318
X134620Y-85180
X135636Y-77470
X135824Y-118917
X135890Y-84455
X137036Y-85131
X137201Y-117559
X142875Y-61595
X142900Y-81889
X143643Y-111794
X143871Y-82925
X144145Y-67945
X144653Y-55880
X144803Y-110667
X145400Y-109109
T2
X79375Y-83566
X101600Y-110490
T3
X73660Y-58420
X73660Y-60960
X73660Y-63500
X73660Y-66040
X73660Y-68580
X73660Y-71120
X73660Y-73660
X73660Y-76200
X73660Y-78740
X73660Y-81280
X73660Y-83820
X73660Y-86360
X73660Y-88900
X73660Y-91440
X73660Y-93980
X73660Y-96520
X73660Y-99060
X73660Y-101600
X73660Y-104140
X73660Y-106680
X73660Y-109220
X73660Y-111760
X73660Y-114300
X73660Y-116840
X73660Y-119380
X73660Y-121920
X73660Y-124460
X73660Y-127000
X73660Y-129540
X73660Y-132080
X73660Y-134620
X73660Y-137160
X78359Y-76113
X78359Y-78613
X96520Y-58420
X96520Y-60960
X96520Y-63500
X96520Y-66040
X96520Y-68580
X96520Y-71120
X96520Y-73660
X96520Y-76200
X96520Y-78740
X96520Y-81280
X96520Y-83820
X96520Y-86360
X96520Y-88900
X96520Y-91440
X96520Y-93980
X96520Y-96520
X96520Y-99060
X96520Y-101600
X96520Y-104140
X96520Y-106680
X96520Y-109220
X96520Y-111760
X96520Y-114300
X96520Y-116840
X96520Y-119380
X96520Y-121920
X96520Y-124460
X96520Y-127000
X96520Y-129540
X96520Y-132080
X96520Y-134620
X96520Y-137160
T4
X111760Y-91440
X111760Y-93980
X111760Y-96520
X111760Y-99060
X111760Y-101600
X111760Y-104140
X111760Y-106680
X111760Y-109220
X111760Y-111760
X111760Y-111760
X114300Y-88900
X114300Y-91440
X114300Y-93980
X114300Y-96520
X114300Y-99060
X114300Y-101600
X114300Y-104140
X114300Y-106680
X114300Y-109220
X114300Y-111760
X114300Y-114300
X114300Y-114300
X116840Y-88900
X116840Y-91440
X116840Y-111760
X116840Y-114300
X119380Y-88900
X119380Y-91440
X119380Y-111760
X119380Y-114300
X121920Y-88900
X121920Y-91440
X121920Y-111760
X121920Y-114300
X124460Y-88900
X124460Y-91440
X124460Y-111760
X124460Y-114300
X127000Y-88900
X127000Y-91440
X127000Y-111760
X127000Y-114300
X129540Y-88900
X129540Y-91440
X129540Y-111760
X129540Y-114300
X132080Y-88900
X132080Y-91440
X132080Y-111760
X132080Y-114300
X134620Y-88900
X134620Y-91440
X134620Y-93980
X134620Y-96520
X134620Y-99060
X134620Y-101600
X134620Y-104140
X134620Y-106680
X134620Y-109220
X134620Y-111760
X134620Y-114300
X137160Y-91440
X137160Y-93980
X137160Y-96520
X137160Y-99060
X137160Y-101600
X137160Y-104140
X137160Y-106680
X137160Y-109220
X137160Y-111760
T0
M30
