G04 #@! TF.FileFunction,Soldermask,Bot*
%FSLAX46Y46*%
G04 Gerber Fmt 4.6, Leading zero omitted, Abs format (unit mm)*
G04 Created by KiCad (PCBNEW 4.0.7) date 07/03/21 20:26:29*
%MOMM*%
%LPD*%
G01*
G04 APERTURE LIST*
%ADD10C,0.100000*%
%ADD11C,1.600000*%
%ADD12O,1.600000X1.600000*%
%ADD13C,1.750000*%
%ADD14R,1.750000X1.750000*%
%ADD15R,1.600000X1.600000*%
%ADD16C,1.143000*%
G04 APERTURE END LIST*
D10*
D11*
X73660000Y-137160000D03*
D12*
X96520000Y-58420000D03*
X73660000Y-134620000D03*
X96520000Y-60960000D03*
X73660000Y-132080000D03*
X96520000Y-63500000D03*
X73660000Y-129540000D03*
X96520000Y-66040000D03*
X73660000Y-127000000D03*
X96520000Y-68580000D03*
X73660000Y-124460000D03*
X96520000Y-71120000D03*
X73660000Y-121920000D03*
X96520000Y-73660000D03*
X73660000Y-119380000D03*
X96520000Y-76200000D03*
X73660000Y-116840000D03*
X96520000Y-78740000D03*
X73660000Y-114300000D03*
X96520000Y-81280000D03*
X73660000Y-111760000D03*
X96520000Y-83820000D03*
X73660000Y-109220000D03*
X96520000Y-86360000D03*
X73660000Y-106680000D03*
X96520000Y-88900000D03*
X73660000Y-104140000D03*
X96520000Y-91440000D03*
X73660000Y-101600000D03*
X96520000Y-93980000D03*
X73660000Y-99060000D03*
X96520000Y-96520000D03*
X73660000Y-96520000D03*
X96520000Y-99060000D03*
X73660000Y-93980000D03*
X96520000Y-101600000D03*
X73660000Y-91440000D03*
X96520000Y-104140000D03*
X73660000Y-88900000D03*
X96520000Y-106680000D03*
X73660000Y-86360000D03*
X96520000Y-109220000D03*
X73660000Y-83820000D03*
X96520000Y-111760000D03*
X73660000Y-81280000D03*
X96520000Y-114300000D03*
X73660000Y-78740000D03*
X96520000Y-116840000D03*
X73660000Y-76200000D03*
X96520000Y-119380000D03*
X73660000Y-73660000D03*
X96520000Y-121920000D03*
X73660000Y-71120000D03*
X96520000Y-124460000D03*
X73660000Y-68580000D03*
X96520000Y-127000000D03*
X73660000Y-66040000D03*
X96520000Y-129540000D03*
X73660000Y-63500000D03*
X96520000Y-132080000D03*
X73660000Y-60960000D03*
X96520000Y-134620000D03*
X73660000Y-58420000D03*
X96520000Y-137160000D03*
D13*
X124460000Y-111760000D03*
X127000000Y-111760000D03*
X129540000Y-111760000D03*
X132080000Y-111760000D03*
X121920000Y-111760000D03*
X119380000Y-111760000D03*
X116840000Y-111760000D03*
X114300000Y-111760000D03*
X111760000Y-111760000D03*
D14*
X124460000Y-114300000D03*
D13*
X127000000Y-114300000D03*
X129540000Y-114300000D03*
X132080000Y-114300000D03*
X134620000Y-114300000D03*
X121920000Y-114300000D03*
X119380000Y-114300000D03*
X116840000Y-114300000D03*
X114300000Y-114300000D03*
X134620000Y-111760000D03*
X134620000Y-109220000D03*
X134620000Y-106680000D03*
X134620000Y-104140000D03*
X134620000Y-101600000D03*
X134620000Y-99060000D03*
X134620000Y-96520000D03*
X134620000Y-93980000D03*
X137160000Y-111760000D03*
X137160000Y-109220000D03*
X137160000Y-106680000D03*
X137160000Y-104140000D03*
X137160000Y-101600000D03*
X137160000Y-99060000D03*
X137160000Y-96520000D03*
X137160000Y-93980000D03*
X137160000Y-91440000D03*
X134620000Y-91440000D03*
X132080000Y-91440000D03*
X129540000Y-91440000D03*
X127000000Y-91440000D03*
X124460000Y-91440000D03*
X121920000Y-91440000D03*
X119380000Y-91440000D03*
X116840000Y-91440000D03*
X114300000Y-91440000D03*
X134620000Y-88900000D03*
X132080000Y-88900000D03*
X129540000Y-88900000D03*
X127000000Y-88900000D03*
X124460000Y-88900000D03*
X121920000Y-88900000D03*
X119380000Y-88900000D03*
X116840000Y-88900000D03*
X114300000Y-88900000D03*
X114300000Y-93980000D03*
X114300000Y-96520000D03*
X114300000Y-99060000D03*
X114300000Y-101600000D03*
X114300000Y-104140000D03*
X114300000Y-106680000D03*
X114300000Y-109220000D03*
X114300000Y-114300000D03*
X111760000Y-91440000D03*
X111760000Y-93980000D03*
X111760000Y-96520000D03*
X111760000Y-99060000D03*
X111760000Y-101600000D03*
X111760000Y-104140000D03*
X111760000Y-106680000D03*
X111760000Y-109220000D03*
X111760000Y-111760000D03*
D15*
X78359000Y-76113000D03*
D11*
X78359000Y-78613000D03*
D16*
X101600000Y-110490000D03*
X79375000Y-83566000D03*
M02*
