G04 #@! TF.FileFunction,Legend,Bot*
%FSLAX46Y46*%
G04 Gerber Fmt 4.6, Leading zero omitted, Abs format (unit mm)*
G04 Created by KiCad (PCBNEW 4.0.7) date 07/03/21 20:26:29*
%MOMM*%
%LPD*%
G01*
G04 APERTURE LIST*
%ADD10C,0.100000*%
%ADD11C,0.200000*%
%ADD12C,0.150000*%
%ADD13C,0.300000*%
%ADD14C,0.120000*%
G04 APERTURE END LIST*
D10*
D11*
X133350000Y-76835000D02*
X140970000Y-76835000D01*
X133350000Y-61594999D02*
X136525000Y-61595000D01*
X133350000Y-81915000D02*
X133350000Y-61594999D01*
X140970000Y-81915000D02*
X133350000Y-81915000D01*
X140970000Y-61595000D02*
X140970000Y-81915000D01*
X136525000Y-61595000D02*
X140970000Y-61595000D01*
X136525000Y-81915000D02*
X136525000Y-61595000D01*
D12*
X134137380Y-77993810D02*
X134851666Y-77993810D01*
X134994523Y-77946190D01*
X135089761Y-77850952D01*
X135137380Y-77708095D01*
X135137380Y-77612857D01*
X135137380Y-78470000D02*
X134137380Y-78470000D01*
X134137380Y-78850953D01*
X134184999Y-78946191D01*
X134232618Y-78993810D01*
X134327856Y-79041429D01*
X134470713Y-79041429D01*
X134565951Y-78993810D01*
X134613570Y-78946191D01*
X134661189Y-78850953D01*
X134661189Y-78470000D01*
X135137380Y-79993810D02*
X135137380Y-79422381D01*
X135137380Y-79708095D02*
X134137380Y-79708095D01*
X134280237Y-79612857D01*
X134375475Y-79517619D01*
X134423094Y-79422381D01*
X138437380Y-78231905D02*
X138437380Y-77660476D01*
X138437380Y-77946190D02*
X137437380Y-77946190D01*
X137580237Y-77850952D01*
X137675475Y-77755714D01*
X137723094Y-77660476D01*
X138056428Y-78660476D02*
X138056428Y-79422381D01*
X137532618Y-79850952D02*
X137484999Y-79898571D01*
X137437380Y-79993809D01*
X137437380Y-80231905D01*
X137484999Y-80327143D01*
X137532618Y-80374762D01*
X137627856Y-80422381D01*
X137723094Y-80422381D01*
X137865951Y-80374762D01*
X138437380Y-79803333D01*
X138437380Y-80422381D01*
X139182618Y-77660476D02*
X139134999Y-77708095D01*
X139087380Y-77803333D01*
X139087380Y-78041429D01*
X139134999Y-78136667D01*
X139182618Y-78184286D01*
X139277856Y-78231905D01*
X139373094Y-78231905D01*
X139515951Y-78184286D01*
X140087380Y-77612857D01*
X140087380Y-78231905D01*
X139706428Y-78660476D02*
X139706428Y-79422381D01*
X139087380Y-79803333D02*
X139087380Y-80422381D01*
X139468332Y-80089047D01*
X139468332Y-80231905D01*
X139515951Y-80327143D01*
X139563570Y-80374762D01*
X139658809Y-80422381D01*
X139896904Y-80422381D01*
X139992142Y-80374762D01*
X140039761Y-80327143D01*
X140087380Y-80231905D01*
X140087380Y-79946190D01*
X140039761Y-79850952D01*
X139992142Y-79803333D01*
X134470714Y-63531667D02*
X135470714Y-63531667D01*
X135089762Y-63531667D02*
X135137381Y-63436429D01*
X135137381Y-63245952D01*
X135089762Y-63150714D01*
X135042143Y-63103095D01*
X134946905Y-63055476D01*
X134661190Y-63055476D01*
X134565952Y-63103095D01*
X134518333Y-63150714D01*
X134470714Y-63245952D01*
X134470714Y-63436429D01*
X134518333Y-63531667D01*
X134470714Y-64436429D02*
X135137381Y-64436429D01*
X134470714Y-64007857D02*
X134994524Y-64007857D01*
X135089762Y-64055476D01*
X135137381Y-64150714D01*
X135137381Y-64293572D01*
X135089762Y-64388810D01*
X135042143Y-64436429D01*
X135137381Y-65341191D02*
X134613571Y-65341191D01*
X134518333Y-65293572D01*
X134470714Y-65198334D01*
X134470714Y-65007857D01*
X134518333Y-64912619D01*
X135089762Y-65341191D02*
X135137381Y-65245953D01*
X135137381Y-65007857D01*
X135089762Y-64912619D01*
X134994524Y-64865000D01*
X134899286Y-64865000D01*
X134804048Y-64912619D01*
X134756429Y-65007857D01*
X134756429Y-65245953D01*
X134708810Y-65341191D01*
X135137381Y-66245953D02*
X134137381Y-66245953D01*
X135089762Y-66245953D02*
X135137381Y-66150715D01*
X135137381Y-65960238D01*
X135089762Y-65865000D01*
X135042143Y-65817381D01*
X134946905Y-65769762D01*
X134661190Y-65769762D01*
X134565952Y-65817381D01*
X134518333Y-65865000D01*
X134470714Y-65960238D01*
X134470714Y-66150715D01*
X134518333Y-66245953D01*
X135137381Y-66722143D02*
X134470714Y-66722143D01*
X134661190Y-66722143D02*
X134565952Y-66769762D01*
X134518333Y-66817381D01*
X134470714Y-66912619D01*
X134470714Y-67007858D01*
X135137381Y-67769763D02*
X134613571Y-67769763D01*
X134518333Y-67722144D01*
X134470714Y-67626906D01*
X134470714Y-67436429D01*
X134518333Y-67341191D01*
X135089762Y-67769763D02*
X135137381Y-67674525D01*
X135137381Y-67436429D01*
X135089762Y-67341191D01*
X134994524Y-67293572D01*
X134899286Y-67293572D01*
X134804048Y-67341191D01*
X134756429Y-67436429D01*
X134756429Y-67674525D01*
X134708810Y-67769763D01*
X134470714Y-68103096D02*
X134470714Y-68484048D01*
X134137381Y-68245953D02*
X134994524Y-68245953D01*
X135089762Y-68293572D01*
X135137381Y-68388810D01*
X135137381Y-68484048D01*
X134470714Y-69245954D02*
X135137381Y-69245954D01*
X134470714Y-68817382D02*
X134994524Y-68817382D01*
X135089762Y-68865001D01*
X135137381Y-68960239D01*
X135137381Y-69103097D01*
X135089762Y-69198335D01*
X135042143Y-69245954D01*
X135137381Y-69722144D02*
X134470714Y-69722144D01*
X134661190Y-69722144D02*
X134565952Y-69769763D01*
X134518333Y-69817382D01*
X134470714Y-69912620D01*
X134470714Y-70007859D01*
X135089762Y-70722145D02*
X135137381Y-70626907D01*
X135137381Y-70436430D01*
X135089762Y-70341192D01*
X134994524Y-70293573D01*
X134613571Y-70293573D01*
X134518333Y-70341192D01*
X134470714Y-70436430D01*
X134470714Y-70626907D01*
X134518333Y-70722145D01*
X134613571Y-70769764D01*
X134708810Y-70769764D01*
X134804048Y-70293573D01*
X135089762Y-72388812D02*
X135137381Y-72293574D01*
X135137381Y-72103097D01*
X135089762Y-72007859D01*
X135042143Y-71960240D01*
X134946905Y-71912621D01*
X134661190Y-71912621D01*
X134565952Y-71960240D01*
X134518333Y-72007859D01*
X134470714Y-72103097D01*
X134470714Y-72293574D01*
X134518333Y-72388812D01*
X135137381Y-72960240D02*
X135089762Y-72865002D01*
X134994524Y-72817383D01*
X134137381Y-72817383D01*
X135137381Y-73484050D02*
X135089762Y-73388812D01*
X135042143Y-73341193D01*
X134946905Y-73293574D01*
X134661190Y-73293574D01*
X134565952Y-73341193D01*
X134518333Y-73388812D01*
X134470714Y-73484050D01*
X134470714Y-73626908D01*
X134518333Y-73722146D01*
X134565952Y-73769765D01*
X134661190Y-73817384D01*
X134946905Y-73817384D01*
X135042143Y-73769765D01*
X135089762Y-73722146D01*
X135137381Y-73626908D01*
X135137381Y-73484050D01*
X135089762Y-74674527D02*
X135137381Y-74579289D01*
X135137381Y-74388812D01*
X135089762Y-74293574D01*
X135042143Y-74245955D01*
X134946905Y-74198336D01*
X134661190Y-74198336D01*
X134565952Y-74245955D01*
X134518333Y-74293574D01*
X134470714Y-74388812D01*
X134470714Y-74579289D01*
X134518333Y-74674527D01*
X135137381Y-75103098D02*
X134137381Y-75103098D01*
X134756429Y-75198336D02*
X135137381Y-75484051D01*
X134470714Y-75484051D02*
X134851667Y-75103098D01*
X138437381Y-63103095D02*
X137770714Y-63103095D01*
X137437381Y-63103095D02*
X137485000Y-63055476D01*
X137532619Y-63103095D01*
X137485000Y-63150714D01*
X137437381Y-63103095D01*
X137532619Y-63103095D01*
X137770714Y-63579285D02*
X138437381Y-63579285D01*
X137865952Y-63579285D02*
X137818333Y-63626904D01*
X137770714Y-63722142D01*
X137770714Y-63865000D01*
X137818333Y-63960238D01*
X137913571Y-64007857D01*
X138437381Y-64007857D01*
X137770714Y-64341190D02*
X137770714Y-64722142D01*
X137437381Y-64484047D02*
X138294524Y-64484047D01*
X138389762Y-64531666D01*
X138437381Y-64626904D01*
X138437381Y-64722142D01*
X138389762Y-65436429D02*
X138437381Y-65341191D01*
X138437381Y-65150714D01*
X138389762Y-65055476D01*
X138294524Y-65007857D01*
X137913571Y-65007857D01*
X137818333Y-65055476D01*
X137770714Y-65150714D01*
X137770714Y-65341191D01*
X137818333Y-65436429D01*
X137913571Y-65484048D01*
X138008810Y-65484048D01*
X138104048Y-65007857D01*
X138437381Y-65912619D02*
X137770714Y-65912619D01*
X137961190Y-65912619D02*
X137865952Y-65960238D01*
X137818333Y-66007857D01*
X137770714Y-66103095D01*
X137770714Y-66198334D01*
X137770714Y-66531667D02*
X138437381Y-66531667D01*
X137865952Y-66531667D02*
X137818333Y-66579286D01*
X137770714Y-66674524D01*
X137770714Y-66817382D01*
X137818333Y-66912620D01*
X137913571Y-66960239D01*
X138437381Y-66960239D01*
X138437381Y-67865001D02*
X137913571Y-67865001D01*
X137818333Y-67817382D01*
X137770714Y-67722144D01*
X137770714Y-67531667D01*
X137818333Y-67436429D01*
X138389762Y-67865001D02*
X138437381Y-67769763D01*
X138437381Y-67531667D01*
X138389762Y-67436429D01*
X138294524Y-67388810D01*
X138199286Y-67388810D01*
X138104048Y-67436429D01*
X138056429Y-67531667D01*
X138056429Y-67769763D01*
X138008810Y-67865001D01*
X138437381Y-68484048D02*
X138389762Y-68388810D01*
X138294524Y-68341191D01*
X137437381Y-68341191D01*
X138818333Y-69912621D02*
X138770714Y-69865001D01*
X138627857Y-69769763D01*
X138532619Y-69722144D01*
X138389762Y-69674525D01*
X138151667Y-69626906D01*
X137961190Y-69626906D01*
X137723095Y-69674525D01*
X137580238Y-69722144D01*
X137485000Y-69769763D01*
X137342143Y-69865001D01*
X137294524Y-69912621D01*
X138437381Y-70722145D02*
X137437381Y-70722145D01*
X138389762Y-70722145D02*
X138437381Y-70626907D01*
X138437381Y-70436430D01*
X138389762Y-70341192D01*
X138342143Y-70293573D01*
X138246905Y-70245954D01*
X137961190Y-70245954D01*
X137865952Y-70293573D01*
X137818333Y-70341192D01*
X137770714Y-70436430D01*
X137770714Y-70626907D01*
X137818333Y-70722145D01*
X138389762Y-71579288D02*
X138437381Y-71484050D01*
X138437381Y-71293573D01*
X138389762Y-71198335D01*
X138294524Y-71150716D01*
X137913571Y-71150716D01*
X137818333Y-71198335D01*
X137770714Y-71293573D01*
X137770714Y-71484050D01*
X137818333Y-71579288D01*
X137913571Y-71626907D01*
X138008810Y-71626907D01*
X138104048Y-71150716D01*
X137770714Y-71912621D02*
X137770714Y-72293573D01*
X138437381Y-72055478D02*
X137580238Y-72055478D01*
X137485000Y-72103097D01*
X137437381Y-72198335D01*
X137437381Y-72293573D01*
X138437381Y-73055479D02*
X137913571Y-73055479D01*
X137818333Y-73007860D01*
X137770714Y-72912622D01*
X137770714Y-72722145D01*
X137818333Y-72626907D01*
X138389762Y-73055479D02*
X138437381Y-72960241D01*
X138437381Y-72722145D01*
X138389762Y-72626907D01*
X138294524Y-72579288D01*
X138199286Y-72579288D01*
X138104048Y-72626907D01*
X138056429Y-72722145D01*
X138056429Y-72960241D01*
X138008810Y-73055479D01*
X137770714Y-73960241D02*
X138437381Y-73960241D01*
X137770714Y-73531669D02*
X138294524Y-73531669D01*
X138389762Y-73579288D01*
X138437381Y-73674526D01*
X138437381Y-73817384D01*
X138389762Y-73912622D01*
X138342143Y-73960241D01*
X138437381Y-74579288D02*
X138389762Y-74484050D01*
X138294524Y-74436431D01*
X137437381Y-74436431D01*
X137770714Y-74817384D02*
X137770714Y-75198336D01*
X137437381Y-74960241D02*
X138294524Y-74960241D01*
X138389762Y-75007860D01*
X138437381Y-75103098D01*
X138437381Y-75198336D01*
X138818333Y-75436432D02*
X138770714Y-75484051D01*
X138627857Y-75579289D01*
X138532619Y-75626908D01*
X138389762Y-75674527D01*
X138151667Y-75722146D01*
X137961190Y-75722146D01*
X137723095Y-75674527D01*
X137580238Y-75626908D01*
X137485000Y-75579289D01*
X137342143Y-75484051D01*
X137294524Y-75436432D01*
X140039762Y-63484048D02*
X140087381Y-63388810D01*
X140087381Y-63198333D01*
X140039762Y-63103095D01*
X139944524Y-63055476D01*
X139563571Y-63055476D01*
X139468333Y-63103095D01*
X139420714Y-63198333D01*
X139420714Y-63388810D01*
X139468333Y-63484048D01*
X139563571Y-63531667D01*
X139658810Y-63531667D01*
X139754048Y-63055476D01*
X140087381Y-63865000D02*
X139420714Y-64388810D01*
X139420714Y-63865000D02*
X140087381Y-64388810D01*
X139420714Y-64626905D02*
X139420714Y-65007857D01*
X139087381Y-64769762D02*
X139944524Y-64769762D01*
X140039762Y-64817381D01*
X140087381Y-64912619D01*
X140087381Y-65007857D01*
X140039762Y-65722144D02*
X140087381Y-65626906D01*
X140087381Y-65436429D01*
X140039762Y-65341191D01*
X139944524Y-65293572D01*
X139563571Y-65293572D01*
X139468333Y-65341191D01*
X139420714Y-65436429D01*
X139420714Y-65626906D01*
X139468333Y-65722144D01*
X139563571Y-65769763D01*
X139658810Y-65769763D01*
X139754048Y-65293572D01*
X140087381Y-66198334D02*
X139420714Y-66198334D01*
X139611190Y-66198334D02*
X139515952Y-66245953D01*
X139468333Y-66293572D01*
X139420714Y-66388810D01*
X139420714Y-66484049D01*
X139420714Y-66817382D02*
X140087381Y-66817382D01*
X139515952Y-66817382D02*
X139468333Y-66865001D01*
X139420714Y-66960239D01*
X139420714Y-67103097D01*
X139468333Y-67198335D01*
X139563571Y-67245954D01*
X140087381Y-67245954D01*
X140087381Y-68150716D02*
X139563571Y-68150716D01*
X139468333Y-68103097D01*
X139420714Y-68007859D01*
X139420714Y-67817382D01*
X139468333Y-67722144D01*
X140039762Y-68150716D02*
X140087381Y-68055478D01*
X140087381Y-67817382D01*
X140039762Y-67722144D01*
X139944524Y-67674525D01*
X139849286Y-67674525D01*
X139754048Y-67722144D01*
X139706429Y-67817382D01*
X139706429Y-68055478D01*
X139658810Y-68150716D01*
X140087381Y-68769763D02*
X140039762Y-68674525D01*
X139944524Y-68626906D01*
X139087381Y-68626906D01*
X140468333Y-70198336D02*
X140420714Y-70150716D01*
X140277857Y-70055478D01*
X140182619Y-70007859D01*
X140039762Y-69960240D01*
X139801667Y-69912621D01*
X139611190Y-69912621D01*
X139373095Y-69960240D01*
X139230238Y-70007859D01*
X139135000Y-70055478D01*
X138992143Y-70150716D01*
X138944524Y-70198336D01*
X139992143Y-71150717D02*
X140039762Y-71103098D01*
X140087381Y-70960241D01*
X140087381Y-70865003D01*
X140039762Y-70722145D01*
X139944524Y-70626907D01*
X139849286Y-70579288D01*
X139658810Y-70531669D01*
X139515952Y-70531669D01*
X139325476Y-70579288D01*
X139230238Y-70626907D01*
X139135000Y-70722145D01*
X139087381Y-70865003D01*
X139087381Y-70960241D01*
X139135000Y-71103098D01*
X139182619Y-71150717D01*
X140087381Y-71579288D02*
X139087381Y-71579288D01*
X139087381Y-71817383D01*
X139135000Y-71960241D01*
X139230238Y-72055479D01*
X139325476Y-72103098D01*
X139515952Y-72150717D01*
X139658810Y-72150717D01*
X139849286Y-72103098D01*
X139944524Y-72055479D01*
X140039762Y-71960241D01*
X140087381Y-71817383D01*
X140087381Y-71579288D01*
X139801667Y-72531669D02*
X139801667Y-73007860D01*
X140087381Y-72436431D02*
X139087381Y-72769764D01*
X140087381Y-73103098D01*
X139992143Y-74007860D02*
X140039762Y-73960241D01*
X140087381Y-73817384D01*
X140087381Y-73722146D01*
X140039762Y-73579288D01*
X139944524Y-73484050D01*
X139849286Y-73436431D01*
X139658810Y-73388812D01*
X139515952Y-73388812D01*
X139325476Y-73436431D01*
X139230238Y-73484050D01*
X139135000Y-73579288D01*
X139087381Y-73722146D01*
X139087381Y-73817384D01*
X139135000Y-73960241D01*
X139182619Y-74007860D01*
X140468333Y-74341193D02*
X140420714Y-74388812D01*
X140277857Y-74484050D01*
X140182619Y-74531669D01*
X140039762Y-74579288D01*
X139801667Y-74626907D01*
X139611190Y-74626907D01*
X139373095Y-74579288D01*
X139230238Y-74531669D01*
X139135000Y-74484050D01*
X138992143Y-74388812D01*
X138944524Y-74341193D01*
D11*
X144780000Y-61595000D02*
X146050000Y-61595000D01*
X144780000Y-95885000D02*
X144780000Y-61595000D01*
X147320000Y-95885000D02*
X147320000Y-80645000D01*
X153670000Y-95885000D02*
X144780000Y-95885000D01*
X153670000Y-80645000D02*
X153670000Y-95885000D01*
X153670000Y-61595000D02*
X153670000Y-80645000D01*
X146050000Y-61595000D02*
X153670000Y-61595000D01*
X147320000Y-80645000D02*
X147320000Y-61595000D01*
X153670000Y-80645000D02*
X144780000Y-80645000D01*
D12*
X145377381Y-81803810D02*
X146091667Y-81803810D01*
X146234524Y-81756190D01*
X146329762Y-81660952D01*
X146377381Y-81518095D01*
X146377381Y-81422857D01*
X146377381Y-82280000D02*
X145377381Y-82280000D01*
X145377381Y-82660953D01*
X145425000Y-82756191D01*
X145472619Y-82803810D01*
X145567857Y-82851429D01*
X145710714Y-82851429D01*
X145805952Y-82803810D01*
X145853571Y-82756191D01*
X145901190Y-82660953D01*
X145901190Y-82280000D01*
X145472619Y-83232381D02*
X145425000Y-83280000D01*
X145377381Y-83375238D01*
X145377381Y-83613334D01*
X145425000Y-83708572D01*
X145472619Y-83756191D01*
X145567857Y-83803810D01*
X145663095Y-83803810D01*
X145805952Y-83756191D01*
X146377381Y-83184762D01*
X146377381Y-83803810D01*
X145377381Y-87565716D02*
X146091667Y-87565716D01*
X146234524Y-87518096D01*
X146329762Y-87422858D01*
X146377381Y-87280001D01*
X146377381Y-87184763D01*
X146377381Y-88041906D02*
X145377381Y-88041906D01*
X145377381Y-88422859D01*
X145425000Y-88518097D01*
X145472619Y-88565716D01*
X145567857Y-88613335D01*
X145710714Y-88613335D01*
X145805952Y-88565716D01*
X145853571Y-88518097D01*
X145901190Y-88422859D01*
X145901190Y-88041906D01*
X145377381Y-88946668D02*
X145377381Y-89565716D01*
X145758333Y-89232382D01*
X145758333Y-89375240D01*
X145805952Y-89470478D01*
X145853571Y-89518097D01*
X145948810Y-89565716D01*
X146186905Y-89565716D01*
X146282143Y-89518097D01*
X146329762Y-89470478D01*
X146377381Y-89375240D01*
X146377381Y-89089525D01*
X146329762Y-88994287D01*
X146282143Y-88946668D01*
X145377381Y-92565717D02*
X146091667Y-92565717D01*
X146234524Y-92518097D01*
X146329762Y-92422859D01*
X146377381Y-92280002D01*
X146377381Y-92184764D01*
X146377381Y-93041907D02*
X145377381Y-93041907D01*
X145377381Y-93422860D01*
X145425000Y-93518098D01*
X145472619Y-93565717D01*
X145567857Y-93613336D01*
X145710714Y-93613336D01*
X145805952Y-93565717D01*
X145853571Y-93518098D01*
X145901190Y-93422860D01*
X145901190Y-93041907D01*
X145710714Y-94470479D02*
X146377381Y-94470479D01*
X145329762Y-94232383D02*
X146044048Y-93994288D01*
X146044048Y-94613336D01*
X148772619Y-81470476D02*
X148725000Y-81518095D01*
X148677381Y-81613333D01*
X148677381Y-81851429D01*
X148725000Y-81946667D01*
X148772619Y-81994286D01*
X148867857Y-82041905D01*
X148963095Y-82041905D01*
X149105952Y-81994286D01*
X149677381Y-81422857D01*
X149677381Y-82041905D01*
X149296429Y-82470476D02*
X149296429Y-83232381D01*
X148677381Y-83613333D02*
X148677381Y-84232381D01*
X149058333Y-83899047D01*
X149058333Y-84041905D01*
X149105952Y-84137143D01*
X149153571Y-84184762D01*
X149248810Y-84232381D01*
X149486905Y-84232381D01*
X149582143Y-84184762D01*
X149629762Y-84137143D01*
X149677381Y-84041905D01*
X149677381Y-83756190D01*
X149629762Y-83660952D01*
X149582143Y-83613333D01*
X148772619Y-86899048D02*
X148725000Y-86946667D01*
X148677381Y-87041905D01*
X148677381Y-87280001D01*
X148725000Y-87375239D01*
X148772619Y-87422858D01*
X148867857Y-87470477D01*
X148963095Y-87470477D01*
X149105952Y-87422858D01*
X149677381Y-86851429D01*
X149677381Y-87470477D01*
X149296429Y-87899048D02*
X149296429Y-88660953D01*
X148677381Y-89041905D02*
X148677381Y-89660953D01*
X149058333Y-89327619D01*
X149058333Y-89470477D01*
X149105952Y-89565715D01*
X149153571Y-89613334D01*
X149248810Y-89660953D01*
X149486905Y-89660953D01*
X149582143Y-89613334D01*
X149629762Y-89565715D01*
X149677381Y-89470477D01*
X149677381Y-89184762D01*
X149629762Y-89089524D01*
X149582143Y-89041905D01*
X148772619Y-92327620D02*
X148725000Y-92375239D01*
X148677381Y-92470477D01*
X148677381Y-92708573D01*
X148725000Y-92803811D01*
X148772619Y-92851430D01*
X148867857Y-92899049D01*
X148963095Y-92899049D01*
X149105952Y-92851430D01*
X149677381Y-92280001D01*
X149677381Y-92899049D01*
X149296429Y-93327620D02*
X149296429Y-94089525D01*
X148677381Y-94470477D02*
X148677381Y-95089525D01*
X149058333Y-94756191D01*
X149058333Y-94899049D01*
X149105952Y-94994287D01*
X149153571Y-95041906D01*
X149248810Y-95089525D01*
X149486905Y-95089525D01*
X149582143Y-95041906D01*
X149629762Y-94994287D01*
X149677381Y-94899049D01*
X149677381Y-94613334D01*
X149629762Y-94518096D01*
X149582143Y-94470477D01*
X151327381Y-82041905D02*
X151327381Y-81470476D01*
X151327381Y-81756190D02*
X150327381Y-81756190D01*
X150470238Y-81660952D01*
X150565476Y-81565714D01*
X150613095Y-81470476D01*
X150946429Y-82470476D02*
X150946429Y-83232381D01*
X150422619Y-83660952D02*
X150375000Y-83708571D01*
X150327381Y-83803809D01*
X150327381Y-84041905D01*
X150375000Y-84137143D01*
X150422619Y-84184762D01*
X150517857Y-84232381D01*
X150613095Y-84232381D01*
X150755952Y-84184762D01*
X151327381Y-83613333D01*
X151327381Y-84232381D01*
X151327381Y-87470477D02*
X151327381Y-86899048D01*
X151327381Y-87184762D02*
X150327381Y-87184762D01*
X150470238Y-87089524D01*
X150565476Y-86994286D01*
X150613095Y-86899048D01*
X150946429Y-87899048D02*
X150946429Y-88660953D01*
X150422619Y-89089524D02*
X150375000Y-89137143D01*
X150327381Y-89232381D01*
X150327381Y-89470477D01*
X150375000Y-89565715D01*
X150422619Y-89613334D01*
X150517857Y-89660953D01*
X150613095Y-89660953D01*
X150755952Y-89613334D01*
X151327381Y-89041905D01*
X151327381Y-89660953D01*
X150422619Y-92327620D02*
X150375000Y-92375239D01*
X150327381Y-92470477D01*
X150327381Y-92708573D01*
X150375000Y-92803811D01*
X150422619Y-92851430D01*
X150517857Y-92899049D01*
X150613095Y-92899049D01*
X150755952Y-92851430D01*
X151327381Y-92280001D01*
X151327381Y-92899049D01*
X150946429Y-93327620D02*
X150946429Y-94089525D01*
X150327381Y-94470477D02*
X150327381Y-95089525D01*
X150708333Y-94756191D01*
X150708333Y-94899049D01*
X150755952Y-94994287D01*
X150803571Y-95041906D01*
X150898810Y-95089525D01*
X151136905Y-95089525D01*
X151232143Y-95041906D01*
X151279762Y-94994287D01*
X151327381Y-94899049D01*
X151327381Y-94613334D01*
X151279762Y-94518096D01*
X151232143Y-94470477D01*
X152977381Y-82041905D02*
X152977381Y-81470476D01*
X152977381Y-81756190D02*
X151977381Y-81756190D01*
X152120238Y-81660952D01*
X152215476Y-81565714D01*
X152263095Y-81470476D01*
X152596429Y-82470476D02*
X152596429Y-83232381D01*
X152072619Y-83660952D02*
X152025000Y-83708571D01*
X151977381Y-83803809D01*
X151977381Y-84041905D01*
X152025000Y-84137143D01*
X152072619Y-84184762D01*
X152167857Y-84232381D01*
X152263095Y-84232381D01*
X152405952Y-84184762D01*
X152977381Y-83613333D01*
X152977381Y-84232381D01*
X152977381Y-87470477D02*
X152977381Y-86899048D01*
X152977381Y-87184762D02*
X151977381Y-87184762D01*
X152120238Y-87089524D01*
X152215476Y-86994286D01*
X152263095Y-86899048D01*
X152596429Y-87899048D02*
X152596429Y-88660953D01*
X152072619Y-89089524D02*
X152025000Y-89137143D01*
X151977381Y-89232381D01*
X151977381Y-89470477D01*
X152025000Y-89565715D01*
X152072619Y-89613334D01*
X152167857Y-89660953D01*
X152263095Y-89660953D01*
X152405952Y-89613334D01*
X152977381Y-89041905D01*
X152977381Y-89660953D01*
X152977381Y-92899049D02*
X152977381Y-92327620D01*
X152977381Y-92613334D02*
X151977381Y-92613334D01*
X152120238Y-92518096D01*
X152215476Y-92422858D01*
X152263095Y-92327620D01*
X152596429Y-93327620D02*
X152596429Y-94089525D01*
X152072619Y-94518096D02*
X152025000Y-94565715D01*
X151977381Y-94660953D01*
X151977381Y-94899049D01*
X152025000Y-94994287D01*
X152072619Y-95041906D01*
X152167857Y-95089525D01*
X152263095Y-95089525D01*
X152405952Y-95041906D01*
X152977381Y-94470477D01*
X152977381Y-95089525D01*
X145710714Y-63007857D02*
X146377381Y-63245952D01*
X145710714Y-63484048D01*
X146329762Y-64245953D02*
X146377381Y-64150715D01*
X146377381Y-63960238D01*
X146329762Y-63865000D01*
X146234524Y-63817381D01*
X145853571Y-63817381D01*
X145758333Y-63865000D01*
X145710714Y-63960238D01*
X145710714Y-64150715D01*
X145758333Y-64245953D01*
X145853571Y-64293572D01*
X145948810Y-64293572D01*
X146044048Y-63817381D01*
X146377381Y-64722143D02*
X145710714Y-64722143D01*
X145901190Y-64722143D02*
X145805952Y-64769762D01*
X145758333Y-64817381D01*
X145710714Y-64912619D01*
X145710714Y-65007858D01*
X146329762Y-65293572D02*
X146377381Y-65388810D01*
X146377381Y-65579286D01*
X146329762Y-65674525D01*
X146234524Y-65722144D01*
X146186905Y-65722144D01*
X146091667Y-65674525D01*
X146044048Y-65579286D01*
X146044048Y-65436429D01*
X145996429Y-65341191D01*
X145901190Y-65293572D01*
X145853571Y-65293572D01*
X145758333Y-65341191D01*
X145710714Y-65436429D01*
X145710714Y-65579286D01*
X145758333Y-65674525D01*
X146377381Y-66150715D02*
X145710714Y-66150715D01*
X145377381Y-66150715D02*
X145425000Y-66103096D01*
X145472619Y-66150715D01*
X145425000Y-66198334D01*
X145377381Y-66150715D01*
X145472619Y-66150715D01*
X146377381Y-66769762D02*
X146329762Y-66674524D01*
X146282143Y-66626905D01*
X146186905Y-66579286D01*
X145901190Y-66579286D01*
X145805952Y-66626905D01*
X145758333Y-66674524D01*
X145710714Y-66769762D01*
X145710714Y-66912620D01*
X145758333Y-67007858D01*
X145805952Y-67055477D01*
X145901190Y-67103096D01*
X146186905Y-67103096D01*
X146282143Y-67055477D01*
X146329762Y-67007858D01*
X146377381Y-66912620D01*
X146377381Y-66769762D01*
X145710714Y-67531667D02*
X146377381Y-67531667D01*
X145805952Y-67531667D02*
X145758333Y-67579286D01*
X145710714Y-67674524D01*
X145710714Y-67817382D01*
X145758333Y-67912620D01*
X145853571Y-67960239D01*
X146377381Y-67960239D01*
X149677381Y-63531667D02*
X149153571Y-63531667D01*
X149058333Y-63484048D01*
X149010714Y-63388810D01*
X149010714Y-63198333D01*
X149058333Y-63103095D01*
X149629762Y-63531667D02*
X149677381Y-63436429D01*
X149677381Y-63198333D01*
X149629762Y-63103095D01*
X149534524Y-63055476D01*
X149439286Y-63055476D01*
X149344048Y-63103095D01*
X149296429Y-63198333D01*
X149296429Y-63436429D01*
X149248810Y-63531667D01*
X149629762Y-64436429D02*
X149677381Y-64341191D01*
X149677381Y-64150714D01*
X149629762Y-64055476D01*
X149582143Y-64007857D01*
X149486905Y-63960238D01*
X149201190Y-63960238D01*
X149105952Y-64007857D01*
X149058333Y-64055476D01*
X149010714Y-64150714D01*
X149010714Y-64341191D01*
X149058333Y-64436429D01*
X149629762Y-65293572D02*
X149677381Y-65198334D01*
X149677381Y-65007857D01*
X149629762Y-64912619D01*
X149582143Y-64865000D01*
X149486905Y-64817381D01*
X149201190Y-64817381D01*
X149105952Y-64865000D01*
X149058333Y-64912619D01*
X149010714Y-65007857D01*
X149010714Y-65198334D01*
X149058333Y-65293572D01*
X149582143Y-65722143D02*
X149629762Y-65769762D01*
X149677381Y-65722143D01*
X149629762Y-65674524D01*
X149582143Y-65722143D01*
X149677381Y-65722143D01*
X149677381Y-67103095D02*
X149629762Y-67007857D01*
X149582143Y-66960238D01*
X149486905Y-66912619D01*
X149201190Y-66912619D01*
X149105952Y-66960238D01*
X149058333Y-67007857D01*
X149010714Y-67103095D01*
X149010714Y-67245953D01*
X149058333Y-67341191D01*
X149105952Y-67388810D01*
X149201190Y-67436429D01*
X149486905Y-67436429D01*
X149582143Y-67388810D01*
X149629762Y-67341191D01*
X149677381Y-67245953D01*
X149677381Y-67103095D01*
X149010714Y-67865000D02*
X149677381Y-67865000D01*
X149105952Y-67865000D02*
X149058333Y-67912619D01*
X149010714Y-68007857D01*
X149010714Y-68150715D01*
X149058333Y-68245953D01*
X149153571Y-68293572D01*
X149677381Y-68293572D01*
X149677381Y-68912619D02*
X149629762Y-68817381D01*
X149534524Y-68769762D01*
X148677381Y-68769762D01*
X149010714Y-69198334D02*
X149677381Y-69436429D01*
X149010714Y-69674525D02*
X149677381Y-69436429D01*
X149915476Y-69341191D01*
X149963095Y-69293572D01*
X150010714Y-69198334D01*
X151327381Y-63531667D02*
X150803571Y-63531667D01*
X150708333Y-63484048D01*
X150660714Y-63388810D01*
X150660714Y-63198333D01*
X150708333Y-63103095D01*
X151279762Y-63531667D02*
X151327381Y-63436429D01*
X151327381Y-63198333D01*
X151279762Y-63103095D01*
X151184524Y-63055476D01*
X151089286Y-63055476D01*
X150994048Y-63103095D01*
X150946429Y-63198333D01*
X150946429Y-63436429D01*
X150898810Y-63531667D01*
X151279762Y-64436429D02*
X151327381Y-64341191D01*
X151327381Y-64150714D01*
X151279762Y-64055476D01*
X151232143Y-64007857D01*
X151136905Y-63960238D01*
X150851190Y-63960238D01*
X150755952Y-64007857D01*
X150708333Y-64055476D01*
X150660714Y-64150714D01*
X150660714Y-64341191D01*
X150708333Y-64436429D01*
X151279762Y-65293572D02*
X151327381Y-65198334D01*
X151327381Y-65007857D01*
X151279762Y-64912619D01*
X151232143Y-64865000D01*
X151136905Y-64817381D01*
X150851190Y-64817381D01*
X150755952Y-64865000D01*
X150708333Y-64912619D01*
X150660714Y-65007857D01*
X150660714Y-65198334D01*
X150708333Y-65293572D01*
X151232143Y-65722143D02*
X151279762Y-65769762D01*
X151327381Y-65722143D01*
X151279762Y-65674524D01*
X151232143Y-65722143D01*
X151327381Y-65722143D01*
X150946429Y-66960238D02*
X150946429Y-67722143D01*
X151327381Y-67341191D02*
X150565476Y-67341191D01*
X151327381Y-68960238D02*
X150660714Y-68960238D01*
X150851190Y-68960238D02*
X150755952Y-69007857D01*
X150708333Y-69055476D01*
X150660714Y-69150714D01*
X150660714Y-69245953D01*
X151327381Y-70007858D02*
X150803571Y-70007858D01*
X150708333Y-69960239D01*
X150660714Y-69865001D01*
X150660714Y-69674524D01*
X150708333Y-69579286D01*
X151279762Y-70007858D02*
X151327381Y-69912620D01*
X151327381Y-69674524D01*
X151279762Y-69579286D01*
X151184524Y-69531667D01*
X151089286Y-69531667D01*
X150994048Y-69579286D01*
X150946429Y-69674524D01*
X150946429Y-69912620D01*
X150898810Y-70007858D01*
X151327381Y-70484048D02*
X150660714Y-70484048D01*
X150755952Y-70484048D02*
X150708333Y-70531667D01*
X150660714Y-70626905D01*
X150660714Y-70769763D01*
X150708333Y-70865001D01*
X150803571Y-70912620D01*
X151327381Y-70912620D01*
X150803571Y-70912620D02*
X150708333Y-70960239D01*
X150660714Y-71055477D01*
X150660714Y-71198334D01*
X150708333Y-71293572D01*
X150803571Y-71341191D01*
X151327381Y-71341191D01*
X152977381Y-63531667D02*
X152453571Y-63531667D01*
X152358333Y-63484048D01*
X152310714Y-63388810D01*
X152310714Y-63198333D01*
X152358333Y-63103095D01*
X152929762Y-63531667D02*
X152977381Y-63436429D01*
X152977381Y-63198333D01*
X152929762Y-63103095D01*
X152834524Y-63055476D01*
X152739286Y-63055476D01*
X152644048Y-63103095D01*
X152596429Y-63198333D01*
X152596429Y-63436429D01*
X152548810Y-63531667D01*
X152929762Y-64436429D02*
X152977381Y-64341191D01*
X152977381Y-64150714D01*
X152929762Y-64055476D01*
X152882143Y-64007857D01*
X152786905Y-63960238D01*
X152501190Y-63960238D01*
X152405952Y-64007857D01*
X152358333Y-64055476D01*
X152310714Y-64150714D01*
X152310714Y-64341191D01*
X152358333Y-64436429D01*
X152929762Y-65293572D02*
X152977381Y-65198334D01*
X152977381Y-65007857D01*
X152929762Y-64912619D01*
X152882143Y-64865000D01*
X152786905Y-64817381D01*
X152501190Y-64817381D01*
X152405952Y-64865000D01*
X152358333Y-64912619D01*
X152310714Y-65007857D01*
X152310714Y-65198334D01*
X152358333Y-65293572D01*
X152882143Y-65722143D02*
X152929762Y-65769762D01*
X152977381Y-65722143D01*
X152929762Y-65674524D01*
X152882143Y-65722143D01*
X152977381Y-65722143D01*
X152596429Y-66960238D02*
X152596429Y-67722143D01*
X152977381Y-67341191D02*
X152215476Y-67341191D01*
X152977381Y-68960238D02*
X152310714Y-68960238D01*
X152501190Y-68960238D02*
X152405952Y-69007857D01*
X152358333Y-69055476D01*
X152310714Y-69150714D01*
X152310714Y-69245953D01*
X152977381Y-70007858D02*
X152453571Y-70007858D01*
X152358333Y-69960239D01*
X152310714Y-69865001D01*
X152310714Y-69674524D01*
X152358333Y-69579286D01*
X152929762Y-70007858D02*
X152977381Y-69912620D01*
X152977381Y-69674524D01*
X152929762Y-69579286D01*
X152834524Y-69531667D01*
X152739286Y-69531667D01*
X152644048Y-69579286D01*
X152596429Y-69674524D01*
X152596429Y-69912620D01*
X152548810Y-70007858D01*
X152977381Y-70484048D02*
X152310714Y-70484048D01*
X152405952Y-70484048D02*
X152358333Y-70531667D01*
X152310714Y-70626905D01*
X152310714Y-70769763D01*
X152358333Y-70865001D01*
X152453571Y-70912620D01*
X152977381Y-70912620D01*
X152453571Y-70912620D02*
X152358333Y-70960239D01*
X152310714Y-71055477D01*
X152310714Y-71198334D01*
X152358333Y-71293572D01*
X152453571Y-71341191D01*
X152977381Y-71341191D01*
X152596429Y-72579286D02*
X152596429Y-73341191D01*
X152977381Y-72960239D02*
X152215476Y-72960239D01*
X152977381Y-75007858D02*
X151977381Y-75007858D01*
X152929762Y-75007858D02*
X152977381Y-74912620D01*
X152977381Y-74722143D01*
X152929762Y-74626905D01*
X152882143Y-74579286D01*
X152786905Y-74531667D01*
X152501190Y-74531667D01*
X152405952Y-74579286D01*
X152358333Y-74626905D01*
X152310714Y-74722143D01*
X152310714Y-74912620D01*
X152358333Y-75007858D01*
X152977381Y-75484048D02*
X152310714Y-75484048D01*
X151977381Y-75484048D02*
X152025000Y-75436429D01*
X152072619Y-75484048D01*
X152025000Y-75531667D01*
X151977381Y-75484048D01*
X152072619Y-75484048D01*
X152929762Y-75912619D02*
X152977381Y-76007857D01*
X152977381Y-76198333D01*
X152929762Y-76293572D01*
X152834524Y-76341191D01*
X152786905Y-76341191D01*
X152691667Y-76293572D01*
X152644048Y-76198333D01*
X152644048Y-76055476D01*
X152596429Y-75960238D01*
X152501190Y-75912619D01*
X152453571Y-75912619D01*
X152358333Y-75960238D01*
X152310714Y-76055476D01*
X152310714Y-76198333D01*
X152358333Y-76293572D01*
X152977381Y-77198334D02*
X152453571Y-77198334D01*
X152358333Y-77150715D01*
X152310714Y-77055477D01*
X152310714Y-76865000D01*
X152358333Y-76769762D01*
X152929762Y-77198334D02*
X152977381Y-77103096D01*
X152977381Y-76865000D01*
X152929762Y-76769762D01*
X152834524Y-76722143D01*
X152739286Y-76722143D01*
X152644048Y-76769762D01*
X152596429Y-76865000D01*
X152596429Y-77103096D01*
X152548810Y-77198334D01*
X152977381Y-77674524D02*
X151977381Y-77674524D01*
X152358333Y-77674524D02*
X152310714Y-77769762D01*
X152310714Y-77960239D01*
X152358333Y-78055477D01*
X152405952Y-78103096D01*
X152501190Y-78150715D01*
X152786905Y-78150715D01*
X152882143Y-78103096D01*
X152929762Y-78055477D01*
X152977381Y-77960239D01*
X152977381Y-77769762D01*
X152929762Y-77674524D01*
X152977381Y-78722143D02*
X152929762Y-78626905D01*
X152834524Y-78579286D01*
X151977381Y-78579286D01*
X152929762Y-79484049D02*
X152977381Y-79388811D01*
X152977381Y-79198334D01*
X152929762Y-79103096D01*
X152834524Y-79055477D01*
X152453571Y-79055477D01*
X152358333Y-79103096D01*
X152310714Y-79198334D01*
X152310714Y-79388811D01*
X152358333Y-79484049D01*
X152453571Y-79531668D01*
X152548810Y-79531668D01*
X152644048Y-79055477D01*
D13*
X85625714Y-82218572D02*
X85697143Y-82147143D01*
X85768571Y-81932857D01*
X85768571Y-81790000D01*
X85697143Y-81575715D01*
X85554286Y-81432857D01*
X85411429Y-81361429D01*
X85125714Y-81290000D01*
X84911429Y-81290000D01*
X84625714Y-81361429D01*
X84482857Y-81432857D01*
X84340000Y-81575715D01*
X84268571Y-81790000D01*
X84268571Y-81932857D01*
X84340000Y-82147143D01*
X84411429Y-82218572D01*
X84268571Y-83147143D02*
X84268571Y-83432857D01*
X84340000Y-83575715D01*
X84482857Y-83718572D01*
X84768571Y-83790000D01*
X85268571Y-83790000D01*
X85554286Y-83718572D01*
X85697143Y-83575715D01*
X85768571Y-83432857D01*
X85768571Y-83147143D01*
X85697143Y-83004286D01*
X85554286Y-82861429D01*
X85268571Y-82790000D01*
X84768571Y-82790000D01*
X84482857Y-82861429D01*
X84340000Y-83004286D01*
X84268571Y-83147143D01*
X85768571Y-84432858D02*
X84268571Y-84432858D01*
X85768571Y-85290001D01*
X84268571Y-85290001D01*
X85768571Y-86004287D02*
X84268571Y-86004287D01*
X85768571Y-86861430D01*
X84268571Y-86861430D01*
X84982857Y-87575716D02*
X84982857Y-88075716D01*
X85768571Y-88290002D02*
X85768571Y-87575716D01*
X84268571Y-87575716D01*
X84268571Y-88290002D01*
X85625714Y-89790002D02*
X85697143Y-89718573D01*
X85768571Y-89504287D01*
X85768571Y-89361430D01*
X85697143Y-89147145D01*
X85554286Y-89004287D01*
X85411429Y-88932859D01*
X85125714Y-88861430D01*
X84911429Y-88861430D01*
X84625714Y-88932859D01*
X84482857Y-89004287D01*
X84340000Y-89147145D01*
X84268571Y-89361430D01*
X84268571Y-89504287D01*
X84340000Y-89718573D01*
X84411429Y-89790002D01*
X84268571Y-90218573D02*
X84268571Y-91075716D01*
X85768571Y-90647145D02*
X84268571Y-90647145D01*
X84268571Y-92504287D02*
X84268571Y-93361430D01*
X85768571Y-92932859D02*
X84268571Y-92932859D01*
X84268571Y-94147144D02*
X84268571Y-94432858D01*
X84340000Y-94575716D01*
X84482857Y-94718573D01*
X84768571Y-94790001D01*
X85268571Y-94790001D01*
X85554286Y-94718573D01*
X85697143Y-94575716D01*
X85768571Y-94432858D01*
X85768571Y-94147144D01*
X85697143Y-94004287D01*
X85554286Y-93861430D01*
X85268571Y-93790001D01*
X84768571Y-93790001D01*
X84482857Y-93861430D01*
X84340000Y-94004287D01*
X84268571Y-94147144D01*
X84268571Y-97218573D02*
X84268571Y-96932859D01*
X84340000Y-96790002D01*
X84411429Y-96718573D01*
X84625714Y-96575716D01*
X84911429Y-96504287D01*
X85482857Y-96504287D01*
X85625714Y-96575716D01*
X85697143Y-96647144D01*
X85768571Y-96790002D01*
X85768571Y-97075716D01*
X85697143Y-97218573D01*
X85625714Y-97290002D01*
X85482857Y-97361430D01*
X85125714Y-97361430D01*
X84982857Y-97290002D01*
X84911429Y-97218573D01*
X84840000Y-97075716D01*
X84840000Y-96790002D01*
X84911429Y-96647144D01*
X84982857Y-96575716D01*
X85125714Y-96504287D01*
X84911429Y-98218573D02*
X84840000Y-98075715D01*
X84768571Y-98004287D01*
X84625714Y-97932858D01*
X84554286Y-97932858D01*
X84411429Y-98004287D01*
X84340000Y-98075715D01*
X84268571Y-98218573D01*
X84268571Y-98504287D01*
X84340000Y-98647144D01*
X84411429Y-98718573D01*
X84554286Y-98790001D01*
X84625714Y-98790001D01*
X84768571Y-98718573D01*
X84840000Y-98647144D01*
X84911429Y-98504287D01*
X84911429Y-98218573D01*
X84982857Y-98075715D01*
X85054286Y-98004287D01*
X85197143Y-97932858D01*
X85482857Y-97932858D01*
X85625714Y-98004287D01*
X85697143Y-98075715D01*
X85768571Y-98218573D01*
X85768571Y-98504287D01*
X85697143Y-98647144D01*
X85625714Y-98718573D01*
X85482857Y-98790001D01*
X85197143Y-98790001D01*
X85054286Y-98718573D01*
X84982857Y-98647144D01*
X84911429Y-98504287D01*
X85768571Y-99432858D02*
X84268571Y-99432858D01*
X85768571Y-100290001D02*
X84911429Y-99647144D01*
X84268571Y-100290001D02*
X85125714Y-99432858D01*
X85768571Y-102075715D02*
X84268571Y-102075715D01*
X85340000Y-102575715D01*
X84268571Y-103075715D01*
X85768571Y-103075715D01*
X84982857Y-104290001D02*
X85054286Y-104504287D01*
X85125714Y-104575715D01*
X85268571Y-104647144D01*
X85482857Y-104647144D01*
X85625714Y-104575715D01*
X85697143Y-104504287D01*
X85768571Y-104361429D01*
X85768571Y-103790001D01*
X84268571Y-103790001D01*
X84268571Y-104290001D01*
X84340000Y-104432858D01*
X84411429Y-104504287D01*
X84554286Y-104575715D01*
X84697143Y-104575715D01*
X84840000Y-104504287D01*
X84911429Y-104432858D01*
X84982857Y-104290001D01*
X84982857Y-103790001D01*
X85697143Y-106361429D02*
X85768571Y-106575715D01*
X85768571Y-106932858D01*
X85697143Y-107075715D01*
X85625714Y-107147144D01*
X85482857Y-107218572D01*
X85340000Y-107218572D01*
X85197143Y-107147144D01*
X85125714Y-107075715D01*
X85054286Y-106932858D01*
X84982857Y-106647144D01*
X84911429Y-106504286D01*
X84840000Y-106432858D01*
X84697143Y-106361429D01*
X84554286Y-106361429D01*
X84411429Y-106432858D01*
X84340000Y-106504286D01*
X84268571Y-106647144D01*
X84268571Y-107004286D01*
X84340000Y-107218572D01*
X84268571Y-108147143D02*
X84268571Y-108432857D01*
X84340000Y-108575715D01*
X84482857Y-108718572D01*
X84768571Y-108790000D01*
X85268571Y-108790000D01*
X85554286Y-108718572D01*
X85697143Y-108575715D01*
X85768571Y-108432857D01*
X85768571Y-108147143D01*
X85697143Y-108004286D01*
X85554286Y-107861429D01*
X85268571Y-107790000D01*
X84768571Y-107790000D01*
X84482857Y-107861429D01*
X84340000Y-108004286D01*
X84268571Y-108147143D01*
X85625714Y-110290001D02*
X85697143Y-110218572D01*
X85768571Y-110004286D01*
X85768571Y-109861429D01*
X85697143Y-109647144D01*
X85554286Y-109504286D01*
X85411429Y-109432858D01*
X85125714Y-109361429D01*
X84911429Y-109361429D01*
X84625714Y-109432858D01*
X84482857Y-109504286D01*
X84340000Y-109647144D01*
X84268571Y-109861429D01*
X84268571Y-110004286D01*
X84340000Y-110218572D01*
X84411429Y-110290001D01*
X85768571Y-110932858D02*
X84268571Y-110932858D01*
X85768571Y-111790001D02*
X84911429Y-111147144D01*
X84268571Y-111790001D02*
X85125714Y-110932858D01*
X84982857Y-112432858D02*
X84982857Y-112932858D01*
X85768571Y-113147144D02*
X85768571Y-112432858D01*
X84268571Y-112432858D01*
X84268571Y-113147144D01*
X84268571Y-113575715D02*
X84268571Y-114432858D01*
X85768571Y-114004287D02*
X84268571Y-114004287D01*
X125138571Y-117014572D02*
X125138571Y-116157429D01*
X125138571Y-116586001D02*
X123638571Y-116586001D01*
X123852857Y-116443144D01*
X123995714Y-116300286D01*
X124067143Y-116157429D01*
D14*
X86090000Y-138490000D02*
G75*
G03X84090000Y-138490000I-1000000J0D01*
G01*
X84090000Y-138490000D02*
X74820000Y-138490000D01*
X74820000Y-138490000D02*
X74820000Y-57090000D01*
X74820000Y-57090000D02*
X95360000Y-57090000D01*
X95360000Y-57090000D02*
X95360000Y-138490000D01*
X95360000Y-138490000D02*
X86090000Y-138490000D01*
D12*
X84542381Y-55546667D02*
X85256667Y-55546667D01*
X85399524Y-55499047D01*
X85494762Y-55403809D01*
X85542381Y-55260952D01*
X85542381Y-55165714D01*
X85542381Y-56546667D02*
X85542381Y-55975238D01*
X85542381Y-56260952D02*
X84542381Y-56260952D01*
X84685238Y-56165714D01*
X84780476Y-56070476D01*
X84828095Y-55975238D01*
M02*
